<svg width="24" height="24" viewBox="0 0 24 24" fill="none" xmlns="http://www.w3.org/2000/svg">
<path d="M23.1077 8.70996C22.6215 7.95619 21.9817 7.47111 21.291 7.33268V2.53282C21.2905 1.86131 21.1137 1.21751 20.7992 0.742678C20.4848 0.267844 20.0584 0.000752399 19.6137 0H1.6773C1.23261 0.000752399 0.806269 0.267844 0.491822 0.742678C0.177374 1.21751 0.000498259 1.86131 0 2.53282V7.95096C0 8.09232 0.0371876 8.2279 0.103382 8.32785C0.169576 8.42781 0.259355 8.48397 0.352968 8.48397C0.971438 8.48397 1.56458 8.85497 2.0019 9.51535C2.43923 10.1757 2.68491 11.0714 2.68491 12.0053C2.68491 12.9393 2.43923 13.8349 2.0019 14.4953C1.56458 15.1557 0.971438 15.5267 0.352968 15.5267C0.260165 15.5267 0.171092 15.5819 0.105031 15.6803C0.0389705 15.7787 0.00123738 15.9125 0 16.0526V21.4672C0.000498259 22.1387 0.177374 22.7825 0.491822 23.2573C0.806269 23.7322 1.23261 23.9992 1.6773 24H19.6137C20.0584 23.9992 20.4848 23.7322 20.7992 23.2573C21.1137 22.7825 21.2905 22.1387 21.291 21.4672V16.6922C21.8658 16.5752 22.4076 16.2191 22.8561 15.6637C23.3045 15.1084 23.6418 14.3756 23.8303 13.5474C24.0187 12.7192 24.051 11.8282 23.9234 10.9739C23.7958 10.1196 23.5133 9.33578 23.1077 8.70996ZM6.25318 23.0655H5.54725V22.3548H6.25318V23.0655ZM6.25318 20.9761H5.54725V19.5974H6.25318V20.9761ZM6.25318 18.2187H5.54725V16.84H6.25318V18.2187ZM6.25318 15.4613H5.54725V14.0812H6.25318V15.4613ZM6.25318 12.7032H5.54725V11.3245H6.25318V12.7032ZM6.25318 9.94581H5.54725V8.56711H6.25318V9.94581ZM6.25318 7.18842H5.54725V5.8083H6.25318V7.18842ZM6.25318 4.43031H5.54725V3.04735H6.25318V4.43031ZM6.25318 1.67291H5.54725V0.962246H6.25318V1.67291ZM9.00445 8.25797V7.61837C9.00445 6.9077 9.15709 6.31548 9.46237 5.8417C9.76765 5.36792 10.1926 5.13103 10.7373 5.13103C11.2889 5.13103 11.7165 5.36792 12.0202 5.8417C12.3239 6.31548 12.4756 6.91007 12.4753 7.62548V8.26508C12.4753 8.97575 12.3236 9.56632 12.0202 10.0368C11.7168 10.5072 11.2933 10.742 10.7495 10.741C10.2014 10.741 9.77377 10.5063 9.46661 10.0368C9.15945 9.56726 9.00587 8.97409 9.00587 8.25726L9.00445 8.25797ZM10.2328 15.8337L14.131 6.41237L14.9094 7.03278L11.0126 16.4534L10.2328 15.8337ZM16.2977 15.0378C16.2977 15.7555 16.146 16.3478 15.8426 16.8144C15.5392 17.2811 15.1157 17.5156 14.5719 17.518C14.0238 17.518 13.5952 17.2811 13.2862 16.8073C12.9772 16.3335 12.8226 15.7413 12.8226 15.0306V14.391C12.8226 13.6846 12.9762 13.0941 13.2834 12.6193C13.5905 12.1446 14.0163 11.9077 14.5606 11.9087C15.1091 11.9087 15.5359 12.1456 15.8412 12.6193C16.1465 13.0931 16.299 13.6854 16.2987 14.396L16.2977 15.0378Z" fill="#231F20"/>
</svg>
